<svg width="20" height="20" viewBox="0 0 20 20" fill="none" xmlns="http://www.w3.org/2000/svg">
<path d="M10 0C4.477 0 0 4.477 0 10C0 15.523 4.477 20 10 20C15.523 20 20 15.523 20 10C20 4.477 15.523 0 10 0ZM10.0081 5C11.6651 5 13.0081 6.343 13.0081 8C13.0081 9.657 11.6651 11 10.0081 11C8.35106 11 7.00806 9.657 7.00806 8C7.00806 6.343 8.35106 5 10.0081 5ZM10 18.5C7.79 18.5 5.77001 17.65 4.26001 16.26C4.70001 14.88 5.84004 13.5699 8.29004 13.5699H11.71C14.15 13.5699 15.29 14.89 15.74 16.26C14.23 17.65 12.21 18.5 10 18.5Z" fill="#00E676"/>
</svg>
